<svg width="2750" height="1130" viewBox="0 0 2750 1130" fill="none" xmlns="http://www.w3.org/2000/svg">
<g clip-path="url(#clip0_1981_8326)">
<path d="M373.868 956.674L496.129 939.366M373.868 956.674L499.065 847.473M373.868 956.674L391.392 856.665L279.277 866.237L243.778 975.091L52.8906 1124.97M373.868 956.674L370.386 1061.58M496.129 939.366L611.246 923.071M496.129 939.366L508.983 1033.91M496.129 939.366L370.386 1061.58M499.071 847.468L496.135 939.366M243.778 975.087L391.392 856.661M243.778 975.087L373.874 956.669M243.778 975.087L105.079 994.72M243.778 975.087L218.977 1091.81M279.283 866.237L162.449 876.211L105.079 994.725M105.079 994.72L279.283 866.233M105.079 994.72L52.8906 1124.96M1098.79 854.058L1181.75 842.312M1098.79 854.058L1144.18 907.095M1098.79 854.058L1056.8 924.542M1181.75 842.312L1144.18 907.095M1181.75 842.312L1225.85 890.791M1144.18 907.095L1225.85 890.791M1144.18 907.095L1056.8 924.542M1144.18 907.095L1202.62 957.275M1144.18 907.095L1116.94 979.706M1225.85 890.791L1281.35 936.67L1349.28 978.846L1363.8 1043.3M1098.78 854.058L1011.48 866.418L1056.79 924.542M1056.8 924.542L963.094 943.25M1056.8 924.542L1116.94 979.706M1056.8 924.542L1023.33 1004.2M919.49 879.439L1011.49 866.418L963.094 943.25M919.49 879.439L963.094 943.25M919.49 879.439L822.413 893.181M919.49 879.439L862.349 963.36M963.094 943.25L1023.34 1004.21M822.413 893.181L862.349 963.36M822.413 893.181L753.751 985.042M862.349 963.36L963.087 943.25M862.349 963.36L753.751 985.042M862.349 963.36L920.655 1031.08M822.419 893.181L719.832 907.701L753.757 985.042M753.751 985.042L807.519 1060.7M753.751 985.042L682.238 1093.48M611.246 923.071L719.826 907.701L636.335 1008.48M611.246 923.071L636.335 1008.48M611.246 923.071L508.989 1033.91M636.335 1008.48L753.751 985.038M636.335 1008.48L682.238 1093.48M508.989 1033.91L636.335 1008.49L542.752 1130M508.989 1033.91L370.386 1061.58M508.989 1033.91L542.752 1130M508.989 1033.91L386.493 1170.9M370.386 1061.58L218.977 1091.81M370.386 1061.58L386.493 1170.9M370.386 1061.58L210.248 1217.02M218.977 1091.81L373.874 956.674M218.977 1091.81L52.8906 1124.97M218.977 1091.81L210.248 1217.02M218.977 1091.81L9.91757 1269.46M52.8906 1124.97L9.91757 1269.46M1202.62 957.275L1225.85 890.786M1202.62 957.275L1281.35 936.666M1202.62 957.275L1275.45 1003.26M1116.94 979.706L1202.62 957.28L1193.68 1030.31M1116.94 979.706L1193.68 1030.31M1116.94 979.706L1102.61 1060.43M1023.33 1004.2L1116.94 979.701M1023.33 1004.2L920.655 1031.08M1023.33 1004.2L1102.6 1060.43M1023.33 1004.2L1000.56 1094.18M920.655 1031.08L963.087 943.246M920.655 1031.08L1000.56 1094.18M920.655 1031.08L885.414 1132.27M807.519 1060.7L862.349 963.365M807.519 1060.7L920.655 1031.08M807.519 1060.7L682.238 1093.48M807.519 1060.7L885.414 1132.27M807.519 1060.7L754.49 1175.57M682.238 1093.48L542.752 1130M682.238 1093.48L754.484 1175.57L604.294 1225.25M682.238 1093.48L604.294 1225.25M542.752 1130L386.493 1170.9M542.752 1130L604.294 1225.25M542.752 1130L430.247 1282.81M386.493 1170.9L430.247 1282.81M210.248 1217.02L386.493 1170.89M210.248 1217.02L9.91757 1269.46M210.248 1217.02L223.6 1328.85M210.248 1217.02L91.5172 1328.85M9.91757 1269.46L0.191895 1328.85M1275.45 1003.26L1281.35 936.67M1275.45 1003.26L1349.28 978.841L1430.53 1015.86M1275.45 1003.26L1363.8 1043.3L1288.59 1074.22M1275.45 1003.26L1288.59 1074.22M1193.68 1030.31L1275.45 1003.27M1193.68 1030.31L1288.59 1074.23M1102.61 1060.43L1193.68 1030.31M1102.61 1060.43L1203.18 1109.35M1000.56 1094.18L1102.6 1060.43L1105.32 1149.57M1000.56 1094.18L885.414 1132.27M1000.56 1094.18L1105.32 1149.57M1000.56 1094.18L992.108 1196.12M885.414 1132.27L754.49 1175.57M885.414 1132.27L992.108 1196.12M885.414 1132.27L859.605 1250.6M754.49 1175.57L859.605 1250.6M604.294 1225.25L702.421 1315.23M430.247 1282.81L604.3 1225.25M430.247 1282.81L291.038 1328.85M430.247 1282.81L464.767 1328.85M245.339 1328.85L386.499 1170.9M1363.8 1043.3L1430.53 1015.86M1363.8 1043.3L1468.35 1075.19M1363.8 1043.3L1402.72 1108.74M1430.53 1015.86L1525.61 1045.92L1634.37 1066.88M1288.59 1074.22L1203.17 1109.34M1288.59 1074.22L1402.72 1108.73M1288.59 1074.22L1326.73 1147.58M1203.17 1109.34L1193.68 1030.31M1203.17 1109.34L1105.32 1149.57M1203.17 1109.34L1326.72 1147.58L1399 1219.46M1203.17 1109.34L1237.71 1193.08M1105.32 1149.57L992.108 1196.12M1105.32 1149.57L1237.71 1193.08M1105.32 1149.57L1132.02 1247.1M992.108 1196.12L859.605 1250.6M992.108 1196.12L1132.02 1247.1M992.108 1196.12L1004.48 1312.29M859.605 1250.6L702.421 1315.23M859.605 1250.6L1004.48 1312.29L1010.14 1328.85M702.421 1315.23L754.49 1175.57M702.421 1315.23L669.288 1328.85M702.421 1315.23L727.996 1328.85M702.421 1315.23L698.393 1328.85M547.927 1328.85L604.294 1225.24M396.699 1328.85L430.241 1282.81M1468.35 1075.19L1402.72 1108.74M1468.35 1075.19L1536.04 1130.63M1468.35 1075.19L1430.54 1015.86M1468.35 1075.19L1525.62 1045.92L1588.94 1096.33M1468.35 1075.19L1588.94 1096.33M1402.72 1108.74L1326.73 1147.58M1402.72 1108.74L1536.04 1130.63M1402.72 1108.74L1473.66 1171.07M1326.73 1147.58L1237.71 1193.08M1326.73 1147.58L1473.66 1171.07M1237.71 1193.08L1132.02 1247.1M1237.71 1193.08L1399 1219.46M1237.71 1193.08L1308.06 1278.41M1132.02 1247.1L1308.06 1278.41M1132.02 1247.1L1181.07 1328.85M1004.48 1312.29L1132.02 1247.1M1004.48 1312.29L972.075 1328.85M1004.48 1312.29L1084.26 1328.85M852.941 1328.85L859.599 1250.6M1588.94 1096.33L1634.38 1066.88M1588.94 1096.33L1536.04 1130.63M1588.94 1096.33L1724.09 1103.87M1634.38 1066.88L1724.09 1103.87M1634.38 1066.88L1755.66 1076.35M1536.04 1130.63L1473.66 1171.07M1536.04 1130.63L1686.83 1136.36M1473.66 1171.07L1399 1219.46M1473.66 1171.07L1642.17 1175.29M1399 1219.46L1308.06 1278.41M1399 1219.46L1587.67 1222.81M1399 1219.46L1519.69 1282.08M1308.06 1278.41L1230.26 1328.85M1308.06 1278.41L1519.69 1282.08M1724.09 1103.87L1755.65 1076.35M1724.09 1103.87L1686.83 1136.36M1724.09 1103.87L1870.53 1095L1755.65 1076.35M1686.83 1136.36L1588.93 1096.33M1686.83 1136.36L1642.17 1175.29M1642.17 1175.29L1536.04 1130.63M1642.17 1175.29L1587.68 1222.8L1473.66 1171.06M1519.69 1282.08L1587.68 1222.81M1519.69 1282.08L1466.05 1328.85M1386.81 1328.85L1308.07 1278.41" stroke="#7A7A7A" stroke-width="0.65" stroke-miterlimit="10"/>
<path d="M1886.89 1071.93L1870.53 1095L2022.83 1067.45M1886.89 1071.93L2022.83 1067.45M1886.89 1071.93L2023.8 1051.53M1755.65 1076.35L1886.89 1071.93M1851.01 1122.53L1686.83 1136.36L1827.3 1155.98M1851.02 1122.53L1724.09 1103.87M1851.02 1122.53L1870.54 1095L2021.66 1086.6M1851.02 1122.53L2021.66 1086.6M1851.02 1122.53L2020.23 1110.07M1827.3 1155.97L1642.17 1175.29L1797.9 1197.45M1827.3 1155.98L1851.01 1122.54M1827.3 1155.98L2020.23 1110.07L2232.92 1048.75M1827.3 1155.98L2018.44 1139.51M1797.9 1197.45L1827.31 1155.98M1797.9 1197.45L2018.44 1139.51M1797.9 1197.45L2016.12 1177.53M1760.47 1250.24L1587.68 1222.8L1797.9 1197.45L1760.47 1250.24ZM1760.47 1250.24L2016.12 1177.53M1644.96 1328.85L1711.21 1319.73M1711.21 1319.73L1519.69 1282.08L1760.47 1250.25L2013.02 1228.52M1711.21 1319.73L1760.47 1250.24M1711.21 1319.73L1704.74 1328.85M1711.21 1319.73L2013.02 1228.52M2022.83 1067.45L2023.79 1051.53M2022.83 1067.45L2173.31 1020.12M2022.83 1067.45L2189.07 1027.69M2023.8 1051.53L2173.31 1020.12M2023.8 1051.53L2160.25 1013.85L2173.31 1020.12M2021.66 1086.6L2022.83 1067.45M2021.66 1086.6L2020.23 1110.07M2021.66 1086.6L2189.07 1027.69M2021.66 1086.6L2208.47 1037.01M2020.23 1110.07L2018.44 1139.51M2020.23 1110.07L2208.47 1037.01M2018.44 1139.51L2016.12 1177.53M2018.44 1139.51L2232.92 1048.75M2016.12 1177.53L2264.73 1064.02M2016.12 1177.53L2307.76 1084.68M2013.02 1228.52L2016.12 1177.54M2013.02 1228.52L2008.63 1300.47M2013.02 1228.52L2307.76 1084.69M2013.02 1228.52L2369.24 1114.21M1918.37 1328.85L2008.63 1300.46L2006.9 1328.85M2008.63 1300.47L1711.21 1319.73M2008.63 1300.47L2369.24 1114.21M2008.63 1300.47L2464.28 1159.85M2173.31 1020.12L2189.07 1027.69M2173.31 1020.12L2341.71 947.416M2173.31 1020.12L2312.69 953.714M2189.07 1027.69L2341.71 947.416M2208.47 1037.01L2189.07 1027.69L2377.39 939.68M2208.47 1037.01L2232.92 1048.75M2208.47 1037.01L2377.39 939.68M2208.47 1037.01L2422.31 929.933M2232.92 1048.75L2264.73 1064.02M2232.92 1048.75L2422.31 929.933M2264.73 1064.02L2018.44 1139.51M2264.73 1064.02L2307.76 1084.68M2264.73 1064.02L2480.61 917.281M2307.76 1084.68L2369.24 1114.21M2307.76 1084.68L2559.3 900.214L2671.35 875.906M2307.76 1084.68L2671.35 875.906M2369.24 1114.21L2464.28 1159.85M2369.24 1114.21L2671.35 875.906M2369.24 1114.21L2749.81 893.07M2151.52 1328.85L2464.28 1159.85M2464.28 1159.85L2630.66 1239.75M2464.28 1159.85L2749.81 918.026M2470.18 1328.85L2630.66 1239.74M2630.66 1239.75L2300.96 1328.86M2630.66 1239.75L2749.81 1131.31M2749.81 1296.96L2630.66 1239.74L2749.81 1177.42M2312.69 953.714L2160.25 1013.85M2312.69 953.714L2288.62 958.935L2400.55 888.52M2312.69 953.714L2341.71 947.416M2312.69 953.714L2431.22 871.087M2160.25 1013.85L2288.62 958.935M2341.71 947.416L2468.01 850.173M2341.71 947.416L2512.95 824.63M2377.39 939.68L2341.71 947.421M2377.39 939.68L2422.31 929.933M2377.39 939.68L2512.95 824.635M2422.31 929.933L2480.61 917.286M2422.31 929.933L2569.1 792.724M2422.31 929.933L2641.22 751.728M2480.61 917.286L2232.93 1048.75M2480.61 917.286L2559.3 900.214M2480.61 917.286L2641.22 751.728M2480.61 917.286L2737.28 697.132M2559.3 900.214L2264.73 1064.02M2559.3 900.214L2737.28 697.132M2559.3 900.214L2749.81 729.754M2671.35 875.906L2749.81 858.885M2671.35 875.906L2749.81 775.944M2749.81 997.328L2464.28 1159.84M2431.22 871.087L2400.55 888.52M2431.22 871.087L2520.37 777.174M2400.55 888.52L2488.19 806.162M2468.01 850.173L2312.69 953.709M2468.01 850.173L2431.22 871.083L2558.63 742.711M2468.01 850.173L2512.95 824.63M2468.01 850.173L2558.63 742.711M2512.95 824.63L2569.1 792.72M2512.95 824.63L2604.87 701.071M2512.95 824.63L2661.85 649.745M2569.1 792.72L2377.39 939.676M2569.1 792.72L2641.22 751.728M2569.1 792.72L2661.85 649.745M2569.1 792.72L2733.84 584.907M2641.22 751.728L2737.28 697.132M2641.22 751.728L2733.84 584.907M2641.22 751.728L2749.81 605.354M2737.28 697.132L2749.81 690.011M2737.28 697.132L2749.81 669.859M2737.28 697.132L2749.81 679.209M2749.81 803.678L2671.35 875.901M2520.37 777.169L2488.19 806.157M2520.37 777.169L2558.63 742.711M2520.37 777.169L2574.45 678.303M2488.19 806.157L2574.45 678.303M2488.19 806.157L2545.59 716.881M2558.63 742.711L2604.87 701.071M2558.63 742.711L2608.35 632.978M2604.87 701.071L2468.01 850.178M2604.87 701.071L2661.85 649.745M2604.87 701.071L2648.74 578.979M2661.85 649.745L2697.7 513.53M2661.85 649.745L2749.81 451.61M2733.84 584.907L2661.86 649.745M2733.84 584.907L2749.81 570.531M2733.84 584.907L2749.81 485.287M2733.84 584.907L2749.81 544.691M2574.45 678.303L2545.59 716.881M2574.45 678.303L2591.55 581.161M2545.59 716.881L2591.55 581.161M2608.35 632.983L2520.38 777.174M2608.35 632.983L2574.45 678.307M2608.35 632.983L2648.75 578.979M2608.35 632.983L2616.83 528.655L2646.48 467.063M2608.35 632.983L2646.48 467.063M2648.75 578.979L2558.64 742.715M2648.75 578.979L2646.48 467.063M2697.7 513.53L2604.87 701.071M2697.7 513.53L2648.75 578.974L2681.73 393.805M2697.7 513.53L2749.81 443.874M2697.7 513.53L2681.73 393.805M2591.55 581.161L2569.74 626.458L2573.62 491.659M2591.55 581.161L2573.62 491.659M2545.59 716.881L2569.75 626.454M2616.82 528.655L2574.45 678.307M2616.82 528.655L2591.55 581.166M2616.82 528.655L2588.06 435.847L2604.73 371.415M2616.82 528.655L2604.73 371.415M2646.48 467.063L2604.73 371.415M2681.73 393.805L2646.48 467.059L2624.2 296.187M2681.73 393.805L2624.2 296.187M2681.73 393.805L2647.21 207.216L2624.2 296.187M2749.81 400.833L2724.37 305.227M2724.37 305.227L2697.7 513.535M2724.37 305.227L2681.73 393.81M2724.37 305.227L2749.81 252.384M2724.37 305.227L2647.21 207.221M2724.37 305.227L2674.86 100.351M2573.62 491.659L2560.99 540.465M2573.62 491.659L2525.56 414.165M2573.62 491.659L2528.91 358.468L2588.07 435.847M2569.75 626.458L2561 540.465L2522.61 463.512M2588.07 435.847L2591.56 581.161M2588.07 435.847L2573.63 491.659M2624.2 296.187L2604.73 371.411M2749.81 170.52L2674.86 100.351M2674.86 100.351L2647.21 207.216M2674.86 100.351L2700.78 0.147949M2749.81 105.895L2717.91 0.147949M2525.56 414.165L2560.99 540.47M2525.56 414.165L2522.6 463.512" stroke="#7A7A7A" stroke-width="0.65" stroke-miterlimit="10"/>
<path d="M2525.56 414.165L2528.91 358.468L2532.72 295.119M2604.73 371.415L2532.72 295.119M2532.72 295.119L2588.06 435.847M2624.2 296.187L2537.09 222.416M2537.09 222.416L2604.73 371.411M2537.09 222.416L2532.72 295.114M2537.09 222.416L2542.16 138.133M2647.21 207.216L2542.16 138.129M2542.16 138.133L2624.2 296.192M2542.16 138.133L2548.1 39.2579L2647.21 207.221M2548.1 39.2579L2674.86 100.351L2607.75 0.147949M2550.45 0.147949L2548.1 39.2533M818.061 0.147949L794.047 25.298L708.221 118.995M708.227 118.999L628.831 209.477L554.303 298.328M554.297 298.328L483.45 386.971L415.394 476.76L349.482 569.06M349.482 569.055L285.334 665.305L222.868 767.089M222.874 767.093L162.449 876.211M1249.21 445.691L1229.37 428.661L1193.64 482.42M1249.21 445.691L1193.64 482.42M1249.21 445.691L1210.16 499.052M1193.64 482.42L1210.16 499.052M1193.64 482.42L1175.34 463.993M1193.64 482.42L1163.79 537.339M1193.64 482.42L1149.17 518.788M1210.16 499.052L1225.13 514.136M1210.16 499.052L1176.99 554.083M1207.4 409.799L1229.37 428.661L1175.34 463.993M1207.4 409.799L1175.34 463.993M1207.4 409.799L1154.95 443.458M1175.34 463.993L1154.95 443.458M1175.34 463.993L1149.17 518.788L1132.87 498.114M1175.34 463.993L1132.87 498.114M1207.4 409.804L1182.94 388.802L1154.95 443.458M1154.95 443.458L1132.87 498.114M1154.95 443.458L1114.6 474.933M1182.94 388.797L1155.53 365.27L1132.09 420.435M1132.1 420.435L1182.94 388.802M1132.1 420.435L1154.96 443.458M1132.1 420.435L1114.6 474.933M1273.29 562.642L1283.06 572.482M1273.29 562.642L1227.45 618.098M1273.29 562.642L1219 607.384M1227.45 618.098L1283.07 572.482L1235.26 628.003M1227.45 618.098L1235.26 628.003M1227.45 618.098L1219 607.384M1227.45 618.098L1187.83 677.489M1227.45 618.098L1181.48 666.34M1235.26 628.003L1187.83 677.489M1235.26 628.003L1193.71 687.796M1273.29 562.647L1262.73 552.002L1219 607.389M1219 607.384L1209.84 595.759M1219 607.384L1181.48 666.34M1219 607.384L1174.59 654.253M1251.26 540.451L1262.73 551.997L1209.84 595.759M1251.26 540.451L1209.84 595.759M1251.26 540.451L1199.87 583.103M1209.84 595.759L1199.87 583.103M1209.84 595.759L1174.59 654.249L1140.8 702.107M1209.84 595.759L1167.08 641.093M1238.78 527.879L1251.27 540.451M1238.78 527.879L1199.87 583.103M1238.78 527.879L1225.13 514.136M1238.78 527.879L1188.96 569.268M1199.87 583.103L1188.96 569.268M1199.87 583.103L1167.08 641.093M1199.87 583.103L1158.89 626.722M1225.13 514.136L1188.96 569.268M1225.13 514.136L1176.99 554.083M1188.96 569.268L1176.99 554.083M1188.96 569.268L1158.89 626.722L1149.9 610.954M1188.96 569.268L1149.9 610.954M1176.99 554.083L1163.8 537.339M1176.99 554.083L1149.9 610.954M1163.8 537.339L1210.16 499.048M1163.8 537.339L1149.17 518.788M1163.8 537.339L1139.99 593.577M1149.17 518.788L1129.02 574.341M1132.87 498.114L1116.81 552.913M1114.6 474.933L1132.88 498.114M1114.6 474.933L1103.13 528.914M1187.83 677.489L1193.71 687.796M1187.83 677.489L1154.81 741.166M1193.71 687.796L1154.81 741.166M1193.71 687.796L1158.79 752.255M1181.48 666.34L1187.83 677.484M1181.48 666.34L1174.59 654.253M1181.48 666.34L1150.52 729.19M1181.48 666.34L1145.86 716.215M1174.59 654.253L1145.86 716.215M1167.08 641.093L1174.58 654.249M1167.08 641.093L1140.8 702.107M1167.08 641.093L1135.27 686.714M1158.89 626.722L1167.08 641.098M1158.89 626.722L1135.27 686.718M1149.9 610.954L1139.99 593.581M1149.9 610.954L1129.22 669.85M1149.9 610.954L1122.56 651.298M1139.99 593.581L1176.99 554.088M1139.99 593.581L1129.02 574.341M1139.99 593.581L1122.56 651.298M1129.02 574.341L1163.8 537.344M1129.02 574.341L1115.2 630.782L1103.92 663.362M1116.81 552.918L1149.17 518.792M1116.81 552.918L1129.02 574.341L1107.02 607.976M1116.81 552.918L1103.13 528.919M1116.81 552.918L1107.02 607.976M1116.81 552.918L1097.87 582.479M1103.13 528.919L1132.87 498.118M1103.13 528.919L1097.87 582.479M1154.81 741.166L1158.79 752.25L1145.25 786.324M1154.81 741.166L1141.09 777.567M1150.52 729.19L1187.83 677.484M1150.52 729.19L1154.82 741.166L1138.77 772.698M1150.52 729.19L1145.86 716.215M1150.52 729.19L1136.68 768.282M1145.86 716.215L1140.8 702.107M1145.86 716.215L1132 758.455M1140.8 702.107L1135.27 686.714M1140.8 702.107L1127.08 748.093M1135.27 686.714L1129.22 669.85M1135.27 686.714L1122.19 736.26M1129.22 669.85L1158.89 626.717M1129.22 669.85L1117.65 721.459M1129.22 669.85L1113.37 707.48M1122.56 651.298L1129.22 669.855M1122.56 651.298L1112.88 705.89M1122.56 651.298L1108.19 688.221M1115.2 630.782L1139.99 593.581M1115.2 630.782L1122.56 651.298M1115.2 630.782L1107.02 607.976M1115.2 630.782L1108.18 688.221M1107.02 607.976L1097.87 582.479M1107.02 607.976L1103.92 663.362L1099.17 635.66M1107.02 607.976L1099.17 635.66M1097.87 582.479L1099.17 635.66M1143.27 782.154L1158.8 752.255M1133.95 762.548L1150.52 729.195M1128.76 751.635L1145.86 716.22M1123.26 739.733L1140.8 702.112M1118.51 724.27L1135.27 686.714M1108.19 688.221L1109.11 693.594M1108.19 688.221L1103.92 663.362M1103.92 663.362L1107.52 688.42M1108.18 690.57V688.217M1147.98 792.067L1181.75 842.312M2400.91 889.759L2400.55 888.52L2402.08 889.038M2488.56 806.73L2488.19 806.157L2489 806.319M1436.27 0.147949L1436.36 6.95914M1444.13 0.147949L1436.35 6.95914M1436.35 6.95914L1356.96 14.1911M1436.35 6.95914L1369.87 71.4643M1372.23 0.147949L1356.96 14.1911M1356.96 14.1911L1369.88 71.4643M1356.96 14.1911L1353.8 0.147949M1356.96 14.1911L1289.26 83.0891M1356.96 14.1911L1266.97 34.5091M1369.87 71.4643L1289.26 83.0891M1369.87 71.4643L1312.43 133.583L1289.26 83.0891M1289.26 83.0891L1266.97 34.5091M1289.26 83.0891L1230.93 149.222M1289.26 83.0891L1200.23 106.593M1302.11 0.147949L1266.97 34.5091M1266.97 34.5091L1251.2 0.147949M1266.97 34.5091L1200.23 106.593M1266.97 34.5091L1170.79 65.7027M1230.93 149.222L1312.43 133.583L1262.96 193.7M1230.93 149.222L1262.95 193.696M1230.93 149.222L1200.23 106.593M1233.61 0.147949L1170.79 65.6981M1170.79 65.7027L1200.24 106.598M1170.79 65.7027L1142.52 26.4401M1168.35 0.147949L1142.52 26.4401M1142.52 26.4401L1212.47 0.147949" stroke="#7A7A7A" stroke-width="0.65" stroke-miterlimit="10"/>
<path d="M1022.71 628.867L1025.02 571.196L946.584 622.102M1022.71 628.867L1097.87 582.479M1022.71 628.867L1099.17 635.66M1022.71 628.867L1028.09 686.191M1022.71 628.867L948.067 683.939M946.584 622.107L953.26 560.08L870.796 615.37M946.584 622.102L1022.71 628.863M946.584 622.102L870.796 615.37M946.584 622.102L948.067 683.935M946.584 622.102L867.428 681.669M870.796 615.37L882.557 549.126L795.338 608.665M870.796 615.37L795.338 608.665M870.796 615.37L867.428 681.669M870.796 615.37L786.177 679.385M795.338 608.665L812.886 538.333L720.216 601.992M795.338 608.665L720.216 601.992M795.338 608.665L786.171 679.385M720.216 601.992L744.23 527.698L645.418 595.348M720.216 601.992L645.418 595.348M720.216 601.992L704.301 677.087M720.216 601.992L621.795 674.765M645.418 595.348L676.565 517.216L570.951 588.731M645.418 595.348L570.951 588.731M645.418 595.348L621.795 674.765M570.951 588.731L538.658 672.426M570.951 588.731L454.873 670.072M544.121 496.699L496.808 582.146M496.808 582.146L609.872 506.885L570.951 588.735L496.808 582.146ZM496.808 582.146L422.989 575.589M496.808 582.146L454.873 670.072M496.808 582.146L370.434 667.7M479.302 486.66L422.983 575.589M422.989 575.589L544.127 496.703M422.989 575.589L370.434 667.7M479.302 486.655L349.482 569.056L422.983 575.585L285.334 665.305L370.434 667.695M1028.09 686.191L948.067 683.939M1028.09 686.191L958.585 745.485M1028.09 686.187L1099.18 635.655M1028.09 686.187L1107.52 688.42L1041.92 743.034M1028.09 686.187L1041.92 743.034M948.067 683.935L867.428 681.669M948.067 683.935L873.479 747.982M948.067 683.939L958.585 745.485M867.428 681.669L786.177 679.385M867.428 681.669L873.479 747.982M867.428 681.669L786.537 750.535M786.177 679.385L786.537 750.535M704.301 677.087L795.338 608.67M704.301 677.087L786.177 679.389L697.703 753.147M704.301 677.087L621.795 674.765M704.301 677.087L697.703 753.147M621.795 674.765L606.912 755.811M538.658 672.426L645.424 595.348M538.658 672.426L621.801 674.765L514.11 758.539M538.658 672.426L454.873 670.072M538.658 672.426L514.11 758.534L419.213 761.322M454.873 670.072L370.434 667.7M454.873 670.072L419.218 761.327M454.873 670.072L322.16 764.175M370.434 667.7L322.16 764.175M370.434 667.7L222.874 767.093L322.16 764.175M1041.92 743.034L1123.54 740.639M1041.92 743.034L1065.12 799.142M1041.92 743.034L979.273 806.471M958.585 745.485L1041.92 743.039M958.585 745.485L979.273 806.476M873.479 747.982L958.585 745.481L890.277 814.069M873.479 747.982L786.537 750.535M873.479 747.982L890.277 814.069M786.537 750.535L797.955 821.948L702.122 830.133M786.537 750.535L702.122 830.133M697.703 753.147L786.537 750.539M697.703 753.147L702.122 830.137L602.565 838.636M697.703 753.147L602.565 838.636M606.918 755.811L704.301 677.082M606.918 755.811L697.703 753.143M606.918 755.811L514.11 758.539M606.918 755.811L602.571 838.632M606.918 755.811L499.071 847.468L602.565 838.632L496.129 939.366M514.11 758.539L499.071 847.473L391.392 856.665L514.11 758.539ZM419.213 761.322L538.652 672.426M419.213 761.322L322.16 764.175M419.213 761.322L391.392 856.661M322.16 764.175L279.277 866.237L419.213 761.327M1065.12 799.142L1123.53 740.639M1065.12 799.142L1147.98 792.068M1065.12 799.142L979.273 806.471M1065.12 799.142L1098.78 854.057M1065.12 799.142L1011.48 866.417L979.273 806.471M979.273 806.471L890.277 814.069M979.273 806.471L919.49 879.439L890.277 814.069M890.277 814.069L797.955 821.953M797.955 821.953L873.473 747.982M797.955 821.953L822.414 893.181L890.277 814.073M702.122 830.133L719.826 907.701M702.122 830.133L611.247 923.071M602.565 838.636L611.247 923.075M162.449 876.211L322.166 764.175M1098.79 854.057L1147.98 792.068M719.832 907.701L797.961 821.953M1980.37 276.077L1881.04 285.117L1786.07 302.148L1696.37 325.998L1612.44 355.708M1612.45 355.708L1534.52 390.522L1462.64 429.891L1396.79 473.449M1396.79 473.454L1336.94 520.998L1283.07 572.482M1104.06 665.129L1103.83 665.069M2453.93 351.218L2522.61 463.512M2453.93 351.218L2459.82 398.739L2365.63 303.683M2453.93 351.218L2365.63 303.683M2453.93 351.218L2351.1 254.987M2447.36 298.208L2528.91 358.468L2439.98 238.697M2447.36 298.208L2525.56 414.165L2453.93 351.222L2447.36 298.208ZM2447.36 298.208L2439.98 238.697M2447.36 298.208L2351.1 254.987M2447.36 298.208L2334.96 200.918M2532.72 295.119L2439.98 238.697M2439.98 238.697L2431.64 171.413M2439.98 238.697L2334.96 200.918M2537.09 222.416L2431.64 171.413M2431.64 171.413L2532.72 295.114M2431.64 171.413L2422.14 94.7324M2431.64 171.413L2316.94 140.538M2431.64 171.413L2296.69 72.6711M2422.14 94.7324L2542.16 138.133L2411.2 6.5291M2422.14 94.7324L2537.09 222.42M2422.14 94.7324L2411.2 6.5291M2422.14 94.7324L2296.69 72.6711M2548.1 39.2579L2411.2 6.53373M2411.2 6.5291L2410.41 0.147949M2411.2 6.5291L2329.2 0.147949M2411.2 6.5291L2400.6 0.147949M2504.84 0.147949L2548.1 39.2533M2365.63 303.683L2378.79 347.768L2267.01 271.144M2365.63 303.683L2351.1 254.987M2365.63 303.683L2267.01 271.144M2365.63 303.683L2246.71 227.571M2351.1 254.987L2334.96 200.918M2351.1 254.987L2246.71 227.571M2351.1 254.987L2224.37 179.616M2334.96 200.918L2316.94 140.538M2334.96 200.918L2224.37 179.616M2316.94 140.538L2439.99 238.697M2316.94 140.538L2296.69 72.6711M2316.94 140.538L2199.66 126.578M2316.94 140.538L2172.19 67.6032M2296.69 72.6711L2275.04 0.147949M2296.69 72.6711L2172.19 67.6032M2296.69 72.6711L2141.47 1.64151M2280.23 0.147949L2422.14 94.7277M2267.01 271.144L2285.53 310.905M2267.01 271.144L2246.71 227.571M2267.01 271.144L2163.33 252.384M2267.01 271.144L2139.34 214.12L2246.71 227.571M2246.71 227.571L2224.37 179.616M2199.66 126.578L2334.97 200.918M2199.66 126.578L2224.38 179.616M2172.19 67.6032L2199.66 126.573M2172.19 67.6032L2141.47 1.64151M2175.51 0.147949L2141.47 1.64151M2141.47 1.64151L2140.77 0.147949M2163.33 252.384L2285.53 310.91M2163.33 252.384L2185.36 287.513" stroke="#7A7A7A" stroke-width="0.65" stroke-miterlimit="10"/>
<path d="M2224.37 179.616L2113.1 172.291M2113.11 172.291L2246.71 227.571M2113.11 172.291L2139.34 214.125M2113.11 172.291L2004.48 176.527L1869.27 156.472M2199.66 126.578L2084.3 126.365M2084.3 126.365L2052.53 75.7091M2084.3 126.365L1939.84 93.8677M2084.3 126.361L2224.37 179.611M2084.3 126.361L2113.11 172.286M2084.3 126.361L1973.65 137.098M2052.53 75.7091L2199.66 126.578M2052.53 75.7091L1939.83 93.8677M2017.32 19.555L2141.47 1.64151L2136 0.147949M2017.32 19.555L2172.19 67.6032L2052.53 75.7045L1902.59 46.2402M2017.32 19.555L2052.54 75.7045M2017.32 19.555L1902.6 46.2402L1756.23 34.7726M2005.15 0.147949L2017.31 19.555L1901.05 0.147949M2058.65 245.795L2163.33 252.384L2139.34 214.12L2032.7 212.617M2058.65 245.795L2185.36 287.513M2058.65 245.795L2082.57 276.387M2058.65 245.795L2032.71 212.622M2058.65 245.795L1955.85 249.679L1830.82 237.943M2058.65 245.795L1929.34 221.13M2032.71 212.622L2163.33 252.388M2032.71 212.622L1929.34 221.135M2004.48 176.522L2139.34 214.12M2004.48 176.522L2032.71 212.617L1900.58 190.168M2004.48 176.522L1973.65 137.098M2004.48 176.522L1900.58 190.168M1973.65 137.098L2113.1 172.286M1973.65 137.098L1869.27 156.468M1973.65 137.098L1835.08 119.656M1939.84 93.8677L1973.65 137.102M1939.84 93.8677L1835.08 119.66M1939.84 93.8677L1797.57 79.2742M1902.59 46.2402L1939.83 93.863M1902.59 46.2402L1866.55 0.147949M1902.59 46.2402L1797.57 79.2696L1756.23 34.7726M1955.85 249.674L2082.57 276.383M1955.85 249.674L1980.37 276.077L1856.89 262.427M1955.85 249.674L1856.89 262.427M1929.34 221.13L1955.86 249.674M1929.34 221.13L1900.58 190.168M1929.34 221.13L1830.82 237.943L1711.11 238.877M1929.34 221.13L1802.59 211.433M1900.58 190.168L1802.59 211.429M1900.58 190.168L1771.94 182.64M1869.27 156.472L1900.58 190.172M1869.27 156.472L1835.08 119.656M1869.27 156.472L1771.94 182.64M1869.27 156.472L1738.52 151.256M1835.08 119.656L1797.57 79.2742M1835.08 119.656L1738.52 151.256M1835.08 119.656L1701.96 116.914M1797.57 79.2742L1701.96 116.914M1797.57 79.2742L1661.79 79.1771M1844.49 0.147949L1756.23 34.7726M1756.23 34.7726L1724.07 0.147949M1756.23 34.7726L1661.79 79.1725M1756.23 34.7726L1617.43 37.5101M1856.89 262.427L1881.04 285.117M1856.89 262.427L1762.97 282.648M1856.89 262.427L1738.06 261.618M1830.82 237.943L1856.89 262.432M1830.82 237.943L1802.59 211.433M1830.82 237.943L1738.06 261.623L1711.11 238.877M1802.59 211.433L1771.94 182.64M1802.59 211.433L1711.11 238.877M1771.94 182.64L1738.52 151.256M1771.94 182.64L1681.87 214.199M1771.94 182.64L1650.04 187.328M1738.52 151.256L1701.96 116.914M1738.52 151.256L1650.04 187.328M1738.52 151.256L1615.24 157.961M1701.96 116.914L1661.79 79.1771M1701.96 116.914L1615.24 157.957M1701.96 116.914L1577.06 125.727M1661.79 79.1771L1617.43 37.5101M1661.79 79.1771L1577.07 125.732M1684.25 0.147949L1617.42 37.5101M1617.43 37.5101L1577.65 0.147949M1617.43 37.5101L1534.97 90.1962M1617.43 37.5101L1488.32 50.8226M1762.97 282.648L1881.05 285.117M1762.97 282.648L1786.07 302.148M1762.97 282.648L1738.06 261.618M1762.97 282.648L1674.78 309.162L1571.28 325.231M1762.97 282.648L1651.5 291.013M1738.06 261.618L1651.5 291.013M1738.06 261.618L1626.32 271.384M1711.11 238.877L1681.87 214.199M1711.11 238.877L1626.32 271.384M1681.87 214.199L1802.6 211.433M1681.87 214.199L1650.04 187.328M1681.87 214.199L1599.01 250.095M1650.04 187.328L1615.24 157.961M1650.04 187.328L1569.27 226.915M1650.04 187.328L1536.78 201.584M1615.24 157.957L1577.06 125.727M1615.24 157.957L1501.14 173.794M1615.24 157.961L1536.78 201.584M1577.06 125.727L1534.96 90.1962M1577.06 125.727L1501.14 173.794M1577.06 125.727L1461.85 143.169M1534.96 90.1962L1661.78 79.1771M1534.96 90.1962L1461.85 143.169M1534.96 90.1962L1418.34 109.247M1556.29 0.147949L1488.32 50.8226M1488.32 50.8226L1534.97 90.1916M1488.32 50.8226L1418.35 109.243M1493.59 0.147949L1436.35 6.95914L1488.32 50.8272L1369.87 71.4643L1418.34 109.247M1674.78 309.167L1786.07 302.152M1674.78 309.167L1696.37 326.003M1674.78 309.167L1651.5 291.013M1674.78 309.167L1592.64 341.045M1651.5 291.013L1626.32 271.384M1651.5 291.013L1571.28 325.231M1626.32 271.384L1548.18 308.126M1626.32 271.384L1523.11 289.561M1599 250.09L1711.11 238.872M1599 250.09L1626.31 271.384M1599 250.09L1523.11 289.561M1569.27 226.91L1681.87 214.194M1569.27 226.91L1599.01 250.09M1569.27 226.91L1495.8 269.345M1569.27 226.91L1465.96 247.251M1536.78 201.584L1569.27 226.91M1536.78 201.584L1501.14 173.794M1536.78 201.584L1465.95 247.251M1536.78 201.584L1433.2 222.998M1501.14 173.794L1461.85 143.169M1501.14 173.794L1433.2 222.994M1461.85 143.169L1397.07 196.253M1461.85 143.169L1357.04 166.613M1418.34 109.247L1461.85 143.174M1418.34 109.247L1357.04 166.617M1418.34 109.247L1312.43 133.583L1357.04 166.613M1592.64 341.045L1696.37 325.998M1592.64 341.045L1612.45 355.708M1592.64 341.045L1571.28 325.231M1592.64 341.045L1516.66 377.579L1497.39 363.615M1592.64 341.045L1497.39 363.615M1571.28 325.231L1497.39 363.615M1571.28 325.231L1476.54 348.499L1497.39 363.615M1548.18 308.126L1651.49 291.013M1548.18 308.126L1571.28 325.231M1548.18 308.126L1476.53 348.499L1453.89 332.083M1548.18 308.126L1453.89 332.083M1523.11 289.561L1548.18 308.122M1523.11 289.561L1453.89 332.083M1523.11 289.561L1429.21 314.193L1453.89 332.083M1495.8 269.349L1599 250.095M1495.8 269.349L1523.11 289.566M1495.8 269.349L1465.96 247.251M1495.8 269.349L1429.21 314.198M1465.96 247.251L1433.2 222.998M1465.96 247.251L1402.21 294.624M1465.96 247.251L1372.54 273.127L1402.21 294.624M1433.2 222.998L1397.07 196.253M1433.2 222.998L1372.54 273.127L1339.8 249.397M1433.2 222.998L1339.8 249.397M1397.07 196.253L1501.14 173.799M1397.07 196.253L1357.04 166.613M1397.07 196.253L1339.8 249.397M1397.07 196.253L1303.48 223.072L1339.8 249.397M1357.04 166.613L1303.48 223.068L1262.96 193.696L1357.04 166.613ZM1516.66 377.579L1612.44 355.708M1516.66 377.579L1534.51 390.522L1446.8 418.261L1516.66 377.579ZM1402.21 294.624L1495.81 269.349M1402.21 294.624L1429.21 314.193" stroke="#7A7A7A" stroke-width="0.65" stroke-miterlimit="10"/>
<path d="M1446.8 418.262L1462.64 429.891L1383 462.759M1446.8 418.262L1429.7 405.703M1446.8 418.262L1383 462.759M1446.8 418.262L1368.09 451.203M1429.7 405.703L1516.66 377.579M1429.7 405.703L1411.18 392.099M1429.7 405.703L1368.09 451.203M1411.18 392.099L1476.54 348.499L1391.05 377.311M1411.18 392.099L1497.39 363.615L1429.71 405.703L1351.93 438.677M1411.18 392.099L1391.05 377.311M1411.18 392.099L1351.93 438.677M1411.18 392.099L1334.36 425.054M1453.89 332.084L1391.05 377.311M1391.05 377.311L1369.1 361.183M1391.05 377.311L1334.36 425.054M1391.05 377.311L1315.17 410.179M1369.09 361.183L1429.21 314.193L1345.05 343.523M1369.1 361.183L1453.89 332.084M1369.1 361.183L1345.05 343.523M1369.1 361.183L1315.17 410.179M1369.1 361.183L1294.14 393.874M1402.21 294.624L1345.05 343.523M1345.05 343.523L1294.14 393.874M1345.05 343.523L1270.98 375.924M1318.61 324.103L1372.54 273.127L1289.39 302.638M1318.61 324.098L1402.2 294.624M1318.61 324.098L1345.05 343.519M1318.61 324.098L1270.98 375.919M1318.61 324.098L1245.36 356.064M1339.8 249.397L1289.39 302.638M1289.39 302.638L1318.61 324.103M1289.39 302.638L1245.36 356.064M1289.39 302.638L1216.87 333.975M1256.93 278.796L1303.48 223.072L1220.66 252.153L1256.93 278.792M1256.93 278.792L1339.8 249.392M1256.93 278.792L1289.39 302.633M1256.93 278.792L1216.87 333.97L1155.53 365.27M1256.93 278.792L1184.98 309.255L1216.86 333.975M1383 462.759L1396.79 473.454M1383 462.759L1368.09 451.203M1383 462.759L1325.17 510.895M1383 462.759L1312.44 499.973M1368.09 451.203L1312.44 499.973M1351.93 438.677L1368.1 451.203L1298.65 488.126M1351.93 438.677L1298.65 488.126M1351.93 438.677L1283.63 475.234M1334.36 425.054L1351.93 438.681M1334.36 425.054L1315.17 410.179M1334.36 425.054L1283.63 475.234M1334.36 425.054L1267.21 461.145M1315.17 410.179L1294.14 393.874M1315.17 410.179L1267.21 461.145M1315.17 410.179L1249.21 445.691L1267.21 461.145M1294.14 393.874L1270.98 375.924M1294.14 393.874L1249.21 445.691M1294.14 393.874L1229.37 428.661L1270.98 375.924M1245.36 356.064L1270.98 375.924L1207.4 409.8L1245.36 356.064ZM1245.36 356.064L1182.94 388.802M1216.87 333.975L1245.37 356.064M1216.87 333.975L1182.94 388.802M1325.17 510.895L1396.79 473.449M1325.17 510.895L1336.94 520.998M1325.17 510.895L1273.3 562.642M1312.44 499.973L1325.16 510.895M1312.44 499.973L1262.73 551.998M1312.44 499.973L1251.26 540.451M1298.65 488.126L1312.45 499.973M1298.65 488.126L1251.27 540.451M1298.65 488.126L1238.78 527.879L1283.63 475.234M1283.63 475.234L1298.65 488.131M1283.63 475.234L1267.21 461.145M1283.63 475.234L1225.13 514.136L1267.21 461.145M1267.21 461.145L1210.16 499.053M1273.29 562.642L1336.93 520.998M1262.73 552.002L1325.16 510.899M2522.6 463.512L2459.82 398.744M2459.82 398.739L2378.79 347.768M2378.79 347.773L2285.53 310.91L2185.36 287.517M2185.36 287.513L2082.57 276.383M2082.57 276.387L1980.37 276.077M2400.91 889.759L2288.62 958.935M2400.55 888.52L2488.56 806.735L2489 806.319L2520.37 777.169M1103.92 663.363L1104.06 665.129L1104.25 667.792L1107.52 688.42L1108.18 690.57L1109.1 693.594L1112.87 705.885L1113.36 707.48M1099.17 635.66L1103.82 665.073M2431.22 871.088L2402.08 889.038L2400.91 889.759M1103.83 665.069L1104.26 667.788M1123.53 740.639L1123.25 739.733L1122.19 736.265L1118.51 724.27M1118.52 724.275L1117.65 721.463L1113.37 707.48M1136.67 768.282L1138.77 772.698L1141.09 777.571L1143.27 782.154L1145.26 786.329M1145.25 786.329L1147.98 792.068M1123.54 740.639L1127.09 748.098M1136.67 768.286L1133.95 762.548L1132 758.456L1128.76 751.635L1127.08 748.098" stroke="#7A7A7A" stroke-width="0.65" stroke-miterlimit="10"/>
<path d="M635 372H2075V1158H635V372Z" fill="url(#paint0_diamond_1981_8326)" fill-opacity="0.5"/>
</g>
<defs>
<radialGradient id="paint0_diamond_1981_8326" cx="0" cy="0" r="1" gradientUnits="userSpaceOnUse" gradientTransform="translate(824 532) rotate(33.1309) scale(426.307 371.952)">
<stop stop-color="#1A7B00"/>
<stop offset="1" stop-color="#082600"/>
</radialGradient>
<clipPath id="clip0_1981_8326">
<rect width="2750" height="1130" fill="white"/>
</clipPath>
</defs>
</svg>
